.
 
http://www.scenetime.com    -   SceneTime [ We been having it ] !!!


How come you press harder on a remote control when you know the battery is dead? so you better seed to get speed ;)

        Seed back for speed


...................................NFO:.................................................   
                                                                                  :::   .:         ::     .::        ::    .::.        .:.     .                       
              :::::. :::::                              ::::::  :::::.                              .:::::::.                                   .: 
   :::::..:::::                              :::::: .::::.                              :::::::::::                                  .::::. :::::.    
   :::::..:::::         ::::::::::::.        ::::::.::::.         ::::::::::::.        .::::: ::::::         ::::. .:::  ::::.       .:::::.:::::.    
   :::::..:::::         ::::::..:::::        :::::::::::          ::::::..:::::.       .::::: ::::::         .:::. ::::  ::::        .:::::::::::.    
   :::::. :::::         :::::. .:::::        ::::::::::.          ::::::  ::::::       .::::: ::::::         .:::. ::::..::::        .:::::::::::.    
   :::::..:::::         :::::. .:::::        ::::::::::           ::::::  :::::.       .::::: ::::::         .::::.::::.:::::        .:::::::::::.    
   :::::..:::::         :::::. .:::::        ::::::::::.          ::::::  :::::.       .::::: ::::::          ::::::::::::::.        .:::::::::::.    
   :::::..:::::         :::::. .:::::        :::::::::::.         ::::::  :::::.       .::::: ::::::          .:::::::::::::         .:::::::::::.    
   .::::..:::::         :::::. .:::::        :::::: :::::         ::::::  :::::.       .::::: :::::.          .:::::. ::::::         .:::::.:::::.    
    ::::::::::.         :::::. .:::::        :::::: .::::.        ::::::  :::::.        :::::::::::           .:::::. ::::::         .:::::  ::::.    
     .::::::.           :::::. .:::::        ::::::  :::::.       ::::::  :::::.         ..::::::.             :::::  .::::.         .:::::  ::::.                                  
   
    
                     NOTES                                      NOTES                                 

                     NOTES                                      NOTES          
                                   
                                                                

  Encoded By .......:UnKnOwN                                                     Release Date ......... 2011
  Runtime ..........:1:40                                                        Source       ......... R1
  IMDb URL .........:http://www.imdb.com/title/tt1911613/                        File Type    ......... Single AVI
  Language .........:English                                                     PS3 Compatible ....... I can't afford 1 lemme know(:
  File Size ........:711mb                                                       Genre        ......... Horror/Thriller

Video
ID                               : 0
Format                           : MPEG-4 Visual
Format profile                   : Advanced Simple@L5
Format settings, BVOP            : Yes
Format settings, QPel            : No
Format settings, GMC             : No warppoints
Format settings, Matrix          : Custom
Codec ID                         : XVID
Codec ID/Hint                    : XviD
Duration                         : 1h 40mn
Bit rate                         : 989 Kbps
Width                            : 680 pixels
Height                           : 364 pixels
Display aspect ratio             : 1.868
Frame rate                       : 29.970 fps
Color space                      : YUV
Chroma subsampling               : 4:2:0
Bit depth                        : 8 bits
Scan type                        : Progressive
Bits/(Pixel*Frame)               : 0.106
Stream size                      : 565 MiB (79%)
Writing library                  : XviD 1.2.1 (UTC 2008-12-04)

Audio
ID                               : 1
Format                           : AC-3
Format/Info                      : Audio Coding 3
Mode extension                   : CM (complete main)
Codec ID                         : 2000
Duration                         : 1h 40mn
Bit rate mode                    : Constant
Bit rate                         : 192 Kbps
Channel(s)                       : 2 channels
Channel positions                : Front: L R
Sampling rate                    : 48.0 KHz
Bit depth                        : 16 bits
Stream size                      : 138 MiB (19%)
Alignment                        : Aligned on interleaves
Interleave, duration             : 33 ms (1.00 video frame)
Interleave, preload duration     : 512 ms



                                                                    SYSPNOSIS
                             A serial killer is terrorizing a small town. Mark Bishop (Brad Jones) has just killed an intruder who attacked
                             him in his home. Only he's not sure if he killed the real serial killer, but knows he doesn't want the attention.
                      Mark has to get rid of the body and avoid the authorities. But he can't shake the feeling that the real killer is still out there

                                                                   RELEASE INFO
                                    
                               If you Care about The budget of a flick and base your review of that give this a pass.If you enjoy a good slasher
                                                               flick check it out good movie.
                                         


                             
                                               
                                                     
                                                                 LOOKING FOR
                                                                                                                
                                                  The almost extinct Bald American Eagle I need a new a fur
                                                  the dog threw up on the last one,If you are a poacher holla(:
                             




                             
                                            GREETZ & RESPECT                   
                              
                                                              NOBODY YET WILL LET YOU KNOW

                                                              MORE GOODIES COMING REAL SOON